name C:\Users\u0101727\Documents\MyRepositories\upper-imu-dc\Results\main_tracking\Case_48\ABD01_linearAccelerations_bodyFrame.mot
datacolumns 4
datarows 129
range 8.06000000 9.34000000
endheader 
time	radius_imu_x	radius_imu_y	radius_imu_z	
          8.06000000	         -4.13700496	         -1.88007493	          9.10890116	
          8.07000000	         -4.13442501	         -1.76448672	          9.16639661	
          8.08000000	         -4.10896830	         -1.64829308	          9.21930954	
          8.09000000	         -4.06269504	         -1.53130144	          9.26860247	
          8.10000000	         -3.99776797	         -1.41340913	          9.31494965	
          8.11000000	         -3.91643610	         -1.29460644	          9.35874408	
          8.12000000	         -3.82097667	         -1.17496372	          9.40016472	
          8.13000000	         -3.71358146	         -1.05460958	          9.43925136	
          8.14000000	         -3.59622554	         -0.93371280	          9.47594384	
          8.15000000	         -3.47058386	         -0.81247608	          9.51007098	
          8.16000000	         -3.33804157	         -0.69113948	          9.54131357	
          8.17000000	         -3.19978298	         -0.56998116	          9.56918585	
          8.18000000	         -3.05690329	         -0.44930355	          9.59305647	
          8.19000000	         -2.91050129	         -0.32940329	          9.61219324	
          8.20000000	         -2.76175030	         -0.21053553	          9.62580385	
          8.21000000	         -2.61196241	         -0.09288470	          9.63307851	
          8.22000000	         -2.46263069	          0.02345152	          9.63325513	
          8.23000000	         -2.31541333	          0.13846750	          9.62570467	
          8.24000000	         -2.17204330	          0.25224983	          9.61002578	
          8.25000000	         -2.03418466	          0.36497444	          9.58612404	
          8.26000000	         -1.90327176	          0.47690489	          9.55422907	
          8.27000000	         -1.78035760	          0.58839800	          9.51484273	
          8.28000000	         -1.66607753	          0.69991476	          9.46871393	
          8.29000000	         -1.56073537	          0.81201788	          9.41684825	
          8.30000000	         -1.46444458	          0.92534433	          9.36050194	
          8.31000000	         -1.37727643	          1.04055518	          9.30113340	
          8.32000000	         -1.29938140	          1.15827723	          9.24030983	
          8.33000000	         -1.23104919	          1.27905126	          9.17957546	
          8.34000000	         -1.17268693	          1.40329486	          9.12031044	
          8.35000000	         -1.12474049	          1.53127981	          9.06362267	
          8.36000000	         -1.08761831	          1.66312100	          9.01030621	
          8.37000000	         -1.06165633	          1.79877770	          8.96088156	
          8.38000000	         -1.04711244	          1.93807439	          8.91570386	
          8.39000000	         -1.04415748	          2.08074524	          8.87509907	
          8.40000000	         -1.05285370	          2.22649030	          8.83947593	
          8.41000000	         -1.07312897	          2.37502035	          8.80935832	
          8.42000000	         -1.10474194	          2.52607303	          8.78530602	
          8.43000000	         -1.14722300	          2.67939606	          8.76773629	
          8.44000000	         -1.19979982	          2.83470718	          8.75670684	
          8.45000000	         -1.26135478	          2.99165404	          8.75174774	
          8.46000000	         -1.33042039	          3.14979795	          8.75183268	
          8.47000000	         -1.40518129	          3.30862877	          8.75547963	
          8.48000000	         -1.48347496	          3.46760026	          8.76095566	
          8.49000000	         -1.56282484	          3.62616640	          8.76650432	
          8.50000000	         -1.64052265	          3.78380465	          8.77053793	
          8.51000000	         -1.71374673	          3.94002851	          8.77178296	
          8.52000000	         -1.77969454	          4.09439933	          8.76938531	
          8.53000000	         -1.83571516	          4.24654631	          8.76297692	
          8.54000000	         -1.87943616	          4.39619441	          8.75268272	
          8.55000000	         -1.90888507	          4.54319083	          8.73903832	
          8.56000000	         -1.92260204	          4.68751564	          8.72280724	
          8.57000000	         -1.91972623	          4.82926582	          8.70472002	
          8.58000000	         -1.90003074	          4.96861564	          8.68521147	
          8.59000000	         -1.86390400	          5.10576849	          8.66425652	
          8.60000000	         -1.81230609	          5.24091722	          8.64139200	
          8.61000000	         -1.74673575	          5.37422576	          8.61592816	
          8.62000000	         -1.66917367	          5.50583597	          8.58726048	
          8.63000000	         -1.58193619	          5.63588475	          8.55514411	
          8.64000000	         -1.48748855	          5.76450144	          8.51981658	
          8.65000000	         -1.38833803	          5.89176446	          8.48193396	
          8.66000000	         -1.28703191	          6.01762737	          8.44238801	
          8.67000000	         -1.18619205	          6.14185111	          8.40211144	
          8.68000000	         -1.08850588	          6.26398326	          8.36192994	
          8.69000000	         -0.99661153	          6.38340736	          8.32245516	
          8.70000000	         -0.91288584	          6.49945904	          8.28399290	
          8.71000000	         -0.83921197	          6.61157339	          8.24643028	
          8.72000000	         -0.77681224	          6.71940255	          8.20907553	
          8.73000000	         -0.72623676	          6.82285956	          8.17054353	
          8.74000000	         -0.68751432	          6.92209690	          8.12886059	
          8.75000000	         -0.66030491	          7.01744884	          8.08178787	
          8.76000000	         -0.64391832	          7.10935332	          8.02715788	
          8.77000000	         -0.63727021	          7.19827131	          7.96305951	
          8.78000000	         -0.63894807	          7.28464190	          7.88791223	
          8.79000000	         -0.64748301	          7.36890817	          7.80056131	
          8.80000000	         -0.66175444	          7.45159804	          7.70039441	
          8.81000000	         -0.68130245	          7.53339079	          7.58737423	
          8.82000000	         -0.70634794	          7.61510313	          7.46198791	
          8.83000000	         -0.73747167	          7.69757398	          7.32517962	
          8.84000000	         -0.77500807	          7.78148405	          7.17830084	
          8.85000000	         -0.81843756	          7.86720443	          7.02323322	
          8.86000000	         -0.86630195	          7.95476007	          6.86281860	
          8.87000000	         -0.91673714	          8.04388441	          6.70121278	
          8.88000000	         -0.96797042	          8.13405867	          6.54350437	
          8.89000000	         -1.01831753	          8.22450654	          6.39459550	
          8.90000000	         -1.06602361	          8.31422888	          6.25805025	
          8.91000000	         -1.10922256	          8.40212672	          6.13545150	
          8.92000000	         -1.14597725	          8.48718474	          6.02641808	
          8.93000000	         -1.17443607	          8.56864051	          5.92922525	
          8.94000000	         -1.19305391	          8.64607224	          5.84161297	
          8.95000000	         -1.20072167	          8.71936595	          5.76142917	
          8.96000000	         -1.19682749	          8.78860360	          5.68700130	
          8.97000000	         -1.18130427	          8.85393580	          5.61728996	
          8.98000000	         -1.15467870	          8.91549013	          5.55184929	
          8.99000000	         -1.11811084	          8.97333977	          5.49059653	
          9.00000000	         -1.07338419	          9.02752985	          5.43346933	
          9.01000000	         -1.02281078	          9.07813562	          5.38014706	
          9.02000000	         -0.96907252	          9.12531457	          5.32995978	
          9.03000000	         -0.91503346	          9.16932215	          5.28196416	
          9.04000000	         -0.86353345	          9.21048623	          5.23510427	
          9.05000000	         -0.81718905	          9.24915933	          5.18838242	
          9.06000000	         -0.77824561	          9.28567374	          5.14098852	
          9.07000000	         -0.74848899	          9.32031797	          5.09237709	
          9.08000000	         -0.72919236	          9.35334003	          5.04231743	
          9.09000000	         -0.72108625	          9.38496774	          4.99091061	
          9.10000000	         -0.72436132	          9.41543148	          4.93850620	
          9.11000000	         -0.73872551	          9.44497362	          4.88550164	
          9.12000000	         -0.76353197	          9.47383577	          4.83212425	
          9.13000000	         -0.79794530	          9.50221109	          4.77830659	
          9.14000000	         -0.84106169	          9.53016344	          4.72367848	
          9.15000000	         -0.89192790	          9.55754956	          4.66768526	
          9.16000000	         -0.94946163	          9.58399255	          4.60985174	
          9.17000000	         -1.01230550	          9.60892386	          4.55009314	
          9.18000000	         -1.07870926	          9.63167678	          4.48890277	
          9.19000000	         -1.14653985	          9.65160188	          4.42729046	
          9.20000000	         -1.21344829	          9.66817307	          4.36647900	
          9.21000000	         -1.27720388	          9.68105951	          4.30753045	
          9.22000000	         -1.33608756	          9.69014192	          4.25099400	
          9.23000000	         -1.38915056	          9.69547847	          4.19660735	
          9.24000000	         -1.43627116	          9.69725664	          4.14316649	
          9.25000000	         -1.47805300	          9.69576289	          4.08863479	
          9.26000000	         -1.51564065	          9.69137929	          4.03046486	
          9.27000000	         -1.55049095	          9.68459432	          3.96607176	
          9.28000000	         -1.58406019	          9.67599461	          3.89339726	
          9.29000000	         -1.61748540	          9.66621927	          3.81146292	
          9.30000000	         -1.65135238	          9.65589639	          3.72082546	
          9.31000000	         -1.68562596	          9.64559144	          3.62375047	
          9.32000000	         -1.71969269	          9.63578541	          3.52391716	
          9.33000000	         -1.75237828	          9.62688825	          3.42581230	
          9.34000000	         -1.78203139	          9.61914332	          3.33409154	
